<?xml version="1.0" encoding="UTF-8"?>
<svg width="192px" height="72px" viewBox="0 0 192 72" version="1.1" xmlns="http://www.w3.org/2000/svg" xmlns:xlink="http://www.w3.org/1999/xlink">
    <!-- Generator: sketchtool 52.4 (67378) - http://www.bohemiancoding.com/sketch -->
    <title>F5D7CC72-DDD5-488A-859B-90B01CFC59ED</title>
    <desc>Created with sketchtool.</desc>
    <g id="Page-1" stroke="none" stroke-width="1" fill="none" fill-rule="evenodd">
        <g id="Новостная-транзитка-1440" transform="translate(-607.000000, -182.000000)">
            <g id="Logo" transform="translate(609.000000, 184.000000)">
                <g id="Group" transform="translate(43.000000, 22.000000)" fill="#363636" font-family="Helvetica" font-size="19.6" font-weight="normal" line-spacing="25.2" opacity="0.973772321">
                    <text id="The-Commercial-Finan">
                        <tspan x="4.01738281" y="19">The Commercial </tspan>
                        <tspan x="41.0353516" y="44.2">Finance</tspan>
                    </text>
                </g>
                <g id="shutterstock_281238401" stroke="#363636" stroke-width="2.31">
                    <path d="M76,49.1111111 C70.4034444,60.305716 58.7853667,68 45.3578556,68 C26.4697444,68 11.1578556,52.7776543 11.1578556,34 C11.1578556,15.2223457 26.4697444,0 45.3578556,0 C58.7853667,0 70.4034444,7.69428395 76,18.8888889 L64.8421444,18.8888889 C59.2458,7.69428395 47.6277222,0 34.2,0 C15.3118889,0 0,15.2223457 0,34 C0,52.7776543 15.3118889,68 34.2,68 C47.6277222,68 59.2458,60.305716 64.8421444,49.1111111 L76,49.1111111 Z" id="Stroke-3"></path>
                </g>
            </g>
        </g>
    </g>
</svg>